<!--?xml version="1.0" encoding="utf-8"?-->
<!-- Generator: Adobe Illustrator 15.1.0, SVG Export Plug-In . SVG Version: 6.00 Build 0)  -->

<svg version="1.1" id="_x32_" xmlns="http://www.w3.org/2000/svg" xmlns:xlink="http://www.w3.org/1999/xlink" x="0px" y="0px" width="512px" height="512px" viewBox="0 0 512 512" style="width: 256px; height: 256px; opacity: 1;" xml:space="preserve">
<style type="text/css">

	.st0{fill:#4B4B4B;}

</style>
<g>
	<path class="st0" d="M505.099,96.52c-1.703-8.563-4.078-12.906-4.078-12.906c-0.719-2.313-2.703-4.031-5.094-4.391
		c-2.406-0.391-4.797,0.609-6.219,2.594l-6.359,8.891l-35.922,50.469c-6.938,9.688-20.625,6.031-31.64,3.922l-35.031-7.125
		c-3.641-0.734-6.781-3.016-8.609-6.25l-16.859-29.891c-5.984-9.766-13.438-21.516-6.484-31.234l36.781-51.656l6.047-8.438
		c1.391-1.969,1.578-4.563,0.469-6.688c-1.125-2.156-3.359-3.469-5.766-3.438c0,0-5.703-0.969-14.844,0.188
		c-22.953,2.922-45.313,12.484-64.031,28.875c-26.391,23.141-40.281,55.25-41.047,87.781c-0.734,31.844,10.234,50.797-24.922,85.953
		C218.318,226.348,24.271,397.207,24.271,397.207c-26.25,26.266-26.25,68.844,0,95.094c26.25,26.266,68.828,26.266,95.094,0
		c0,0,175.656-198.843,194.031-217.218c32.766-32.75,54.547-33.344,89.813-35.578c22.796-1.453,44.656-12.578,63.125-28.766
		C499.911,181.317,513.224,137.379,505.099,96.52z M50.021,466.551c-12.578-12.578-12.578-32.984,0-45.563s32.984-12.578,45.563,0
		c12.594,12.578,12.594,32.984,0,45.563C83.005,479.145,62.599,479.145,50.021,466.551z" style="fill: rgb(75, 75, 75);"></path>
</g>
</svg>
